<svg width="49" height="10" viewBox="0 0 49 10" fill="none" xmlns="http://www.w3.org/2000/svg">
<path d="M3.86 8.08C3.19333 8.08 2.61667 7.93667 2.13 7.65C1.64333 7.35667 1.26667 6.94 1 6.4C0.74 5.85333 0.61 5.21 0.61 4.47C0.61 3.73667 0.74 3.1 1 2.56C1.26667 2.01333 1.64333 1.59667 2.13 1.31C2.61667 1.01667 3.19333 0.869999 3.86 0.869999C4.30667 0.869999 4.72667 0.943333 5.12 1.09C5.52 1.23 5.86667 1.43333 6.16 1.7C6.26667 1.8 6.32 1.91667 6.32 2.05C6.32 2.14333 6.29333 2.22667 6.24 2.3C6.18667 2.36667 6.12333 2.4 6.05 2.4C5.97 2.4 5.87333 2.36333 5.76 2.29C5.42 2.02333 5.11 1.83667 4.83 1.73C4.55667 1.62333 4.24 1.57 3.88 1.57C3.10667 1.57 2.51 1.82333 2.09 2.33C1.67667 2.83 1.47 3.54333 1.47 4.47C1.47 5.40333 1.67667 6.12333 2.09 6.63C2.51 7.13 3.10667 7.38 3.88 7.38C4.23333 7.38 4.55 7.32667 4.83 7.22C5.11 7.11333 5.42 6.92667 5.76 6.66C5.87333 6.58667 5.97 6.55 6.05 6.55C6.12333 6.55 6.18667 6.58333 6.24 6.65C6.29333 6.71667 6.32 6.8 6.32 6.9C6.32 7.03333 6.26667 7.15 6.16 7.25C5.86667 7.51667 5.52 7.72333 5.12 7.87C4.72667 8.01 4.30667 8.08 3.86 8.08ZM9.92758 3.03C10.2076 3.01 10.3476 3.12333 10.3476 3.37C10.3476 3.47667 10.3176 3.56333 10.2576 3.63C10.1976 3.69 10.0942 3.72667 9.94758 3.74L9.64758 3.77C9.20091 3.81 8.86758 3.97 8.64758 4.25C8.43424 4.52333 8.32758 4.84667 8.32758 5.22V7.65C8.32758 7.78333 8.29091 7.88333 8.21758 7.95C8.14424 8.01667 8.04758 8.05 7.92758 8.05C7.80758 8.05 7.70758 8.01667 7.62758 7.95C7.55424 7.87667 7.51758 7.77667 7.51758 7.65V3.43C7.51758 3.30333 7.55758 3.20667 7.63758 3.14C7.71758 3.06667 7.81424 3.03 7.92758 3.03C8.03424 3.03 8.12424 3.06667 8.19758 3.14C8.27091 3.20667 8.30758 3.3 8.30758 3.42V3.98C8.44758 3.68667 8.64424 3.46333 8.89758 3.31C9.15758 3.15667 9.45424 3.06667 9.78758 3.04L9.92758 3.03ZM14.7153 6.87C14.7886 6.87 14.852 6.9 14.9053 6.96C14.9586 7.02 14.9853 7.09667 14.9853 7.19C14.9853 7.35667 14.8686 7.51 14.6353 7.65C14.3953 7.79 14.142 7.89667 13.8753 7.97C13.6086 8.03667 13.3486 8.07 13.0953 8.07C12.342 8.07 11.7453 7.84667 11.3053 7.4C10.872 6.95333 10.6553 6.33667 10.6553 5.55C10.6553 5.05 10.752 4.61 10.9453 4.23C11.1386 3.84333 11.4086 3.54333 11.7553 3.33C12.1086 3.11667 12.5086 3.01 12.9553 3.01C13.5886 3.01 14.092 3.21667 14.4653 3.63C14.8386 4.04333 15.0253 4.60333 15.0253 5.31C15.0253 5.44333 14.9986 5.54 14.9453 5.6C14.892 5.66 14.8053 5.69 14.6853 5.69H11.4653C11.5253 6.83667 12.0686 7.41 13.0953 7.41C13.3553 7.41 13.5786 7.37667 13.7653 7.31C13.952 7.23667 14.152 7.14 14.3653 7.02C14.5386 6.92 14.6553 6.87 14.7153 6.87ZM12.9653 3.64C12.5386 3.64 12.1953 3.77333 11.9353 4.04C11.682 4.30667 11.532 4.68333 11.4853 5.17H14.3153C14.302 4.67667 14.1786 4.3 13.9453 4.04C13.712 3.77333 13.3853 3.64 12.9653 3.64ZM18.2088 3.01C19.4288 3.01 20.0388 3.65 20.0388 4.93V7.65C20.0388 7.77 20.0021 7.86667 19.9288 7.94C19.8621 8.01333 19.7688 8.05 19.6488 8.05C19.5288 8.05 19.4321 8.01333 19.3588 7.94C19.2854 7.86667 19.2488 7.77 19.2488 7.65V7.17C19.1221 7.45667 18.9288 7.68 18.6688 7.84C18.4088 7.99333 18.1088 8.07 17.7688 8.07C17.4554 8.07 17.1654 8.00667 16.8988 7.88C16.6388 7.75333 16.4321 7.57667 16.2788 7.35C16.1254 7.12333 16.0488 6.87333 16.0488 6.6C16.0488 6.23333 16.1421 5.95 16.3288 5.75C16.5154 5.54333 16.8221 5.39667 17.2488 5.31C17.6754 5.21667 18.2688 5.17 19.0288 5.17H19.2488V4.84C19.2488 4.44 19.1654 4.14667 18.9988 3.96C18.8388 3.77333 18.5754 3.68 18.2088 3.68C17.7554 3.68 17.2954 3.80333 16.8288 4.05C16.6488 4.16333 16.5221 4.22 16.4488 4.22C16.3688 4.22 16.3021 4.19 16.2488 4.13C16.1954 4.07 16.1688 3.99333 16.1688 3.9C16.1688 3.80667 16.1954 3.72667 16.2488 3.66C16.3088 3.58667 16.4021 3.51333 16.5288 3.44C16.7621 3.30667 17.0254 3.20333 17.3188 3.13C17.6188 3.05 17.9154 3.01 18.2088 3.01ZM17.8788 7.43C18.2788 7.43 18.6054 7.29667 18.8588 7.03C19.1188 6.75667 19.2488 6.40667 19.2488 5.98V5.69H19.0688C18.4821 5.69 18.0354 5.71667 17.7288 5.77C17.4221 5.81667 17.2021 5.9 17.0688 6.02C16.9421 6.13333 16.8788 6.30333 16.8788 6.53C16.8788 6.79 16.9721 7.00667 17.1588 7.18C17.3521 7.34667 17.5921 7.43 17.8788 7.43ZM23.7715 7.41C24.0048 7.43 24.1215 7.53667 24.1215 7.73C24.1215 7.84333 24.0782 7.93 23.9915 7.99C23.9115 8.04333 23.7882 8.06333 23.6215 8.05L23.3515 8.03C22.8182 7.99 22.4248 7.83 22.1715 7.55C21.9182 7.27 21.7915 6.84667 21.7915 6.28V3.77H21.1215C21.0082 3.77 20.9182 3.74333 20.8515 3.69C20.7915 3.63 20.7615 3.55333 20.7615 3.46C20.7615 3.36 20.7915 3.28 20.8515 3.22C20.9182 3.16 21.0082 3.13 21.1215 3.13H21.7915V2C21.7915 1.87333 21.8282 1.77667 21.9015 1.71C21.9748 1.63667 22.0748 1.6 22.2015 1.6C22.3215 1.6 22.4182 1.63667 22.4915 1.71C22.5648 1.77667 22.6015 1.87333 22.6015 2V3.13H23.7115C23.8182 3.13 23.9015 3.16 23.9615 3.22C24.0282 3.28 24.0615 3.36 24.0615 3.46C24.0615 3.55333 24.0282 3.63 23.9615 3.69C23.9015 3.74333 23.8182 3.77 23.7115 3.77H22.6015V6.32C22.6015 6.68667 22.6748 6.95333 22.8215 7.12C22.9748 7.28 23.2015 7.37 23.5015 7.39L23.7715 7.41ZM28.6899 6.87C28.7633 6.87 28.8266 6.9 28.8799 6.96C28.9333 7.02 28.9599 7.09667 28.9599 7.19C28.9599 7.35667 28.8433 7.51 28.6099 7.65C28.3699 7.79 28.1166 7.89667 27.8499 7.97C27.5833 8.03667 27.3233 8.07 27.0699 8.07C26.3166 8.07 25.7199 7.84667 25.2799 7.4C24.8466 6.95333 24.6299 6.33667 24.6299 5.55C24.6299 5.05 24.7266 4.61 24.9199 4.23C25.1133 3.84333 25.3833 3.54333 25.7299 3.33C26.0833 3.11667 26.4833 3.01 26.9299 3.01C27.5633 3.01 28.0666 3.21667 28.4399 3.63C28.8133 4.04333 28.9999 4.60333 28.9999 5.31C28.9999 5.44333 28.9733 5.54 28.9199 5.6C28.8666 5.66 28.7799 5.69 28.6599 5.69H25.4399C25.4999 6.83667 26.0433 7.41 27.0699 7.41C27.3299 7.41 27.5533 7.37667 27.7399 7.31C27.9266 7.23667 28.1266 7.14 28.3399 7.02C28.5133 6.92 28.6299 6.87 28.6899 6.87ZM26.9399 3.64C26.5133 3.64 26.1699 3.77333 25.9099 4.04C25.6566 4.30667 25.5066 4.68333 25.4599 5.17H28.2899C28.2766 4.67667 28.1533 4.3 27.9199 4.04C27.6866 3.77333 27.3599 3.64 26.9399 3.64ZM34.1034 0.9C34.23 0.9 34.33 0.936666 34.4034 1.01C34.4767 1.08333 34.5134 1.17667 34.5134 1.29V7.65C34.5134 7.77 34.4767 7.86667 34.4034 7.94C34.33 8.01333 34.23 8.05 34.1034 8.05C33.9767 8.05 33.8767 8.01333 33.8034 7.94C33.7367 7.86667 33.7034 7.77 33.7034 7.65V7.11C33.5567 7.41667 33.34 7.65333 33.0534 7.82C32.7734 7.98667 32.4434 8.07 32.0634 8.07C31.6367 8.07 31.26 7.96333 30.9334 7.75C30.6067 7.53667 30.3534 7.24 30.1734 6.86C29.9934 6.47333 29.9034 6.02667 29.9034 5.52C29.9034 5.02 29.9934 4.58 30.1734 4.2C30.3534 3.82 30.6067 3.52667 30.9334 3.32C31.26 3.11333 31.6367 3.01 32.0634 3.01C32.4434 3.01 32.7734 3.09333 33.0534 3.26C33.34 3.42667 33.5567 3.66333 33.7034 3.97V1.29C33.7034 1.17 33.7367 1.07667 33.8034 1.01C33.8767 0.936666 33.9767 0.9 34.1034 0.9ZM32.2234 7.4C32.6967 7.4 33.06 7.24 33.3134 6.92C33.5734 6.59333 33.7034 6.13333 33.7034 5.54C33.7034 4.94667 33.5734 4.49 33.3134 4.17C33.06 3.85 32.6967 3.69 32.2234 3.69C31.75 3.69 31.38 3.85 31.1134 4.17C30.8534 4.49 30.7234 4.94 30.7234 5.52C30.7234 6.11333 30.8534 6.57667 31.1134 6.91C31.38 7.23667 31.75 7.4 32.2234 7.4ZM41.0418 3.01C41.4685 3.01 41.8451 3.11333 42.1718 3.32C42.4985 3.52667 42.7518 3.82 42.9318 4.2C43.1118 4.58 43.2018 5.02 43.2018 5.52C43.2018 6.02667 43.1118 6.47333 42.9318 6.86C42.7518 7.24 42.4985 7.53667 42.1718 7.75C41.8451 7.96333 41.4685 8.07 41.0418 8.07C40.6618 8.07 40.3285 7.98667 40.0418 7.82C39.7618 7.65333 39.5485 7.41667 39.4018 7.11V7.65C39.4018 7.77 39.3651 7.86667 39.2918 7.94C39.2251 8.01333 39.1285 8.05 39.0018 8.05C38.8751 8.05 38.7751 8.01333 38.7018 7.94C38.6285 7.86667 38.5918 7.77 38.5918 7.65V1.29C38.5918 1.17667 38.6285 1.08333 38.7018 1.01C38.7751 0.936666 38.8751 0.9 39.0018 0.9C39.1285 0.9 39.2251 0.936666 39.2918 1.01C39.3651 1.07667 39.4018 1.17 39.4018 1.29V3.97C39.5485 3.66333 39.7618 3.42667 40.0418 3.26C40.3285 3.09333 40.6618 3.01 41.0418 3.01ZM40.8818 7.4C41.3551 7.4 41.7218 7.23667 41.9818 6.91C42.2418 6.57667 42.3718 6.11333 42.3718 5.52C42.3718 4.94 42.2418 4.49 41.9818 4.17C41.7218 3.85 41.3551 3.69 40.8818 3.69C40.4085 3.69 40.0418 3.85 39.7818 4.17C39.5285 4.49 39.4018 4.94667 39.4018 5.54C39.4018 6.13333 39.5285 6.59333 39.7818 6.92C40.0418 7.24 40.4085 7.4 40.8818 7.4ZM47.8635 3.28C47.9368 3.12 48.0535 3.04 48.2135 3.04C48.3135 3.04 48.4035 3.07333 48.4835 3.14C48.5635 3.20667 48.6035 3.29 48.6035 3.39C48.6035 3.45 48.5902 3.50333 48.5635 3.55L45.7535 9.61C45.7202 9.68333 45.6702 9.74 45.6035 9.78C45.5435 9.82 45.4802 9.84 45.4135 9.84C45.3135 9.84 45.2235 9.80667 45.1435 9.74C45.0702 9.68 45.0335 9.6 45.0335 9.5C45.0335 9.44667 45.0468 9.39333 45.0735 9.34L45.7735 7.83L43.7935 3.55C43.7668 3.50333 43.7535 3.45333 43.7535 3.4C43.7535 3.3 43.7968 3.21333 43.8835 3.14C43.9768 3.06667 44.0768 3.03 44.1835 3.03C44.2502 3.03 44.3135 3.05 44.3735 3.09C44.4402 3.13 44.4902 3.18667 44.5235 3.26L46.1935 7.01L47.8635 3.28Z" fill="white"/>
</svg>
